<svg id="svg-main"
  xmlns="http://www.w3.org/2000/svg" pointer-events="all">
  <style>
      .background {
        fill: white;
      }

      .node {
        stroke: black;
        stroke-width: 1px;
        cursor: move;
        fill: beige;
      }

      .node[data-selected] {
        stroke: red;
      }

      .node[data-fixed] {
        fill: pink;
      }
      
      .link {
        fill: none;
        stroke: #000;
        stroke-width: 3px;
        opacity: 0.7;
        marker-end: url(#end-arrow);
      }
      
      .label {
        fill: black;
        font-family: Verdana;
        font-size: 25px;
        font-weight: 100;
        text-anchor: middle;
        cursor: move;
      }
  </style>
  <rect class="background" width="100%" height="100%"></rect>
  <defs>
    <marker id="end-arrow" viewBox="0 -5 10 10" refX="5" markerWidth="3" markerHeight="3" orient="auto">
      <path d="M0,-5L10,0L0,5L2,0" stroke-width="0px" fill="#000"></path>
    </marker>
  </defs>
  <g id="vis" transform="translate(-276.3,-262.0) scale(0.697)">
    <g pointer-events="none">
      <rect rx="8" ry="8" class="group" style="fill: #ffdd3c; fill-opacity: 0.3;" x="-142.8" y="313.5" width="760.0490876387813" height="549.9113932070827"></rect>
      <rect rx="8" ry="8" class="group" style="fill: #4db987; fill-opacity: 0.3;" x="708.1" y="351.7" width="471.6283682521424" height="706.4445514294935"></rect>
      <rect rx="8" ry="8" class="group" style="fill: #ff00ff; fill-opacity: 0.3;" x="1270.5" y="622.5" width="67.67500114440918" height="540.5313720948852"></rect>
    </g>
    <g>
      <rect class="node" width="18.2" height="24.5" x="-28.3" y="329.5"></rect>
      <rect class="node" width="87.2" height="54.5" x="24.8" y="398.3"></rect>
      <rect class="node" width="86.8" height="39.5" x="1.9" y="346.8"></rect>
      <rect class="node" width="56.9" height="24.5" x="115.8" y="486.9"></rect>
      <rect class="node" width="66.6" height="24.5" x="191.9" y="579.4"></rect>
      <rect class="node" width="59.6" height="24.5" x="125.8" y="650.2"></rect>
      <rect class="node" width="84.8" height="24.5" x="142.2" y="749.9"></rect>
      <rect class="node" width="86.8" height="39.5" x="268.3" y="637.4"></rect>
      <rect class="node" width="107.2" height="39.5" x="372.9" y="557.0"></rect>
      <rect class="node" width="86.8" height="39.5" x="478.8" y="495.0"></rect>
      <rect class="node" width="56.3" height="24.5" x="288.8" y="467.1"></rect>
      <rect class="node" width="78.7" height="24.5" x="387.1" y="424.3"></rect>
      <rect class="node" width="64.9" height="39.5" x="79.1" y="563.4"></rect>
      <rect class="node" width="56.3" height="39.5" x="170.4" y="527.9"></rect>
      <rect class="node" width="73.7" height="54.5" x="-3.8" y="467.1"></rect>
      <rect class="node" width="36.3" height="24.5" x="2.8" y="572.7"></rect>
      <rect class="node" width="86.8" height="39.5" x="-126.8" y="478.3"></rect>
      <rect class="node" width="33.8" height="24.5" x="456.0" y="343.7"></rect>
      <rect class="node" width="33.8" height="24.5" x="375.7" y="330.5"></rect>
      <rect class="node" width="33.8" height="24.5" x="91.7" y="815.9"></rect>
      <rect class="node" width="35.7" height="24.5" x="203.6" y="713.4"></rect>
      <rect class="node" width="25.4" height="24.5" x="369.6" y="820.0"></rect>
      <rect class="node" width="34.4" height="24.5" x="434.9" y="794.5"></rect>
      <rect class="node" width="125.0" height="54.5" x="321.4" y="688.9"></rect>
      <rect class="node" width="86.8" height="39.5" x="493.7" y="691.1"></rect>
      <rect class="node" width="87.5" height="54.5" x="501.9" y="585.2"></rect>
      <rect class="node" width="78.8" height="39.5" x="623.2" y="737.3"></rect>
      <rect class="node" width="18.2" height="24.5" x="583.0" y="822.9"></rect>
      <rect class="node" width="18.2" height="24.5" x="724.1" y="813.8"></rect>
      <rect class="node" width="18.2" height="24.5" x="583.0" y="394.7"></rect>
      <rect class="node" width="18.2" height="24.5" x="724.1" y="391.8"></rect>
      <rect class="node" width="78.8" height="39.5" x="623.2" y="457.8"></rect>
      <rect class="node" width="86.8" height="39.5" x="724.1" y="513.0"></rect>
      <rect class="node" width="87.5" height="54.5" x="749.8" y="596.4"></rect>
      <rect class="node" width="86.8" height="39.5" x="769.9" y="696.6"></rect>
      <rect class="node" width="125.0" height="54.5" x="903.1" y="688.1"></rect>
      <rect class="node" width="56.3" height="39.5" x="985.8" y="574.3"></rect>
      <rect class="node" width="25.4" height="24.5" x="988.3" y="821.8"></rect>
      <rect class="node" width="33.8" height="24.5" x="1074.6" y="710.2"></rect>
      <rect class="node" width="98.0" height="39.5" x="1000.8" y="921.6"></rect>
      <rect class="node" width="18.2" height="24.5" x="1107.4" y="1017.7"></rect>
      <rect class="node" width="78.8" height="39.5" x="1158.6" y="1080.8"></rect>
      <rect class="node" width="18.2" height="24.5" x="1286.5" y="1122.6"></rect>
      <rect class="node" width="64.9" height="54.5" x="1035.1" y="451.0"></rect>
      <rect class="node" width="35.7" height="24.5" x="1128.0" y="405.3"></rect>
      <rect class="node" width="48.1" height="24.5" x="1043.5" y="367.7"></rect>
      <rect class="node" width="78.8" height="39.5" x="1185.7" y="683.3"></rect>
      <rect class="node" width="35.7" height="24.5" x="1128.0" y="645.6"></rect>
      <rect class="node" width="35.7" height="24.5" x="1286.5" y="738.5"></rect>
      <rect class="node" width="33.8" height="24.5" x="1287.4" y="638.5"></rect>
      <text class="label" transform="translate(-19.2,329.5)">
        <tspan x="0" dy="15" font-size="12">P</tspan>
      </text>
      <text class="label" transform="translate(68.4,398.3)">
        <tspan x="0" dy="15" font-size="12">sucrose</tspan>
        <tspan x="0" dy="15" font-size="12">phosphate</tspan>
        <tspan x="0" dy="15" font-size="12">phosphatase</tspan>
      </text>
      <text class="label" transform="translate(45.3,346.8)">
        <tspan x="0" dy="15" font-size="12">sucrose</tspan>
        <tspan x="0" dy="15" font-size="12">6-phosphate</tspan>
      </text>
      <text class="label" transform="translate(144.3,486.9)">
        <tspan x="0" dy="15" font-size="12">sucrose</tspan>
      </text>
      <text class="label" transform="translate(225.2,579.4)">
        <tspan x="0" dy="15" font-size="12">invertase</tspan>
      </text>
      <text class="label" transform="translate(155.6,650.2)">
        <tspan x="0" dy="15" font-size="12">fructose</tspan>
      </text>
      <text class="label" transform="translate(184.6,749.9)">
        <tspan x="0" dy="15" font-size="12">fructokinase</tspan>
      </text>
      <text class="label" transform="translate(311.7,637.4)">
        <tspan x="0" dy="15" font-size="12">fructose</tspan>
        <tspan x="0" dy="15" font-size="12">6-phosphate</tspan>
      </text>
      <text class="label" transform="translate(426.5,557.0)">
        <tspan x="0" dy="15" font-size="12">phosphoglucose</tspan>
        <tspan x="0" dy="15" font-size="12">isomerase</tspan>
      </text>
      <text class="label" transform="translate(522.2,495.0)">
        <tspan x="0" dy="15" font-size="12">glucose</tspan>
        <tspan x="0" dy="15" font-size="12">6-phosphate</tspan>
      </text>
      <text class="label" transform="translate(316.9,467.1)">
        <tspan x="0" dy="15" font-size="12">glucose</tspan>
      </text>
      <text class="label" transform="translate(426.5,424.4)">
        <tspan x="0" dy="15" font-size="12">hexokinase</tspan>
      </text>
      <text class="label" transform="translate(111.5,563.4)">
        <tspan x="0" dy="15" font-size="12">sucrose</tspan>
        <tspan x="0" dy="15" font-size="12">synthase</tspan>
      </text>
      <text class="label" transform="translate(198.6,527.9)">
        <tspan x="0" dy="15" font-size="12">UDP-</tspan>
        <tspan x="0" dy="15" font-size="12">glucose</tspan>
      </text>
      <text class="label" transform="translate(33.0,467.2)">
        <tspan x="0" dy="15" font-size="12">sucrose</tspan>
        <tspan x="0" dy="15" font-size="12">phosphate</tspan>
        <tspan x="0" dy="15" font-size="12">synthase</tspan>
      </text>
      <text class="label" transform="translate(20.9,572.7)">
        <tspan x="0" dy="15" font-size="12">UDP</tspan>
      </text>
      <text class="label" transform="translate(-83.4,478.3)">
        <tspan x="0" dy="15" font-size="12">fructose</tspan>
        <tspan x="0" dy="15" font-size="12">6-phosphate</tspan>
      </text>
      <text class="label" transform="translate(472.9,343.7)">
        <tspan x="0" dy="15" font-size="12">ATP</tspan>
      </text>
      <text class="label" transform="translate(392.6,330.5)">
        <tspan x="0" dy="15" font-size="12">ATP</tspan>
      </text>
      <text class="label" transform="translate(108.6,815.9)">
        <tspan x="0" dy="15" font-size="12">ATP</tspan>
      </text>
      <text class="label" transform="translate(221.4,713.4)">
        <tspan x="0" dy="15" font-size="12">ADP</tspan>
      </text>
      <text class="label" transform="translate(382.3,820.0)">
        <tspan x="0" dy="15" font-size="12">PP</tspan>
      </text>
      <text class="label" transform="translate(452.1,794.6)">
        <tspan x="0" dy="15" font-size="12">UTP</tspan>
      </text>
      <text class="label" transform="translate(384.0,688.9)">
        <tspan x="0" dy="15" font-size="12">UDP</tspan>
        <tspan x="0" dy="15" font-size="12">glucose</tspan>
        <tspan x="0" dy="15" font-size="12">pyrophosphorylase</tspan>
      </text>
      <text class="label" transform="translate(537.1,691.1)">
        <tspan x="0" dy="15" font-size="12">glucose</tspan>
        <tspan x="0" dy="15" font-size="12">1-phosphate</tspan>
      </text>
      <text class="label" transform="translate(545.6,585.2)">
        <tspan x="0" dy="15" font-size="12">phospho-</tspan>
        <tspan x="0" dy="15" font-size="12">glucomutase</tspan>
        <tspan x="0" dy="15" font-size="12">(cPGM)</tspan>
      </text>
      <text class="label" transform="translate(662.7,737.3)">
        <tspan x="0" dy="15" font-size="12">G1P</tspan>
        <tspan x="0" dy="15" font-size="12">transporter</tspan>
      </text>
      <text class="label" transform="translate(592.1,822.9)">
        <tspan x="0" dy="15" font-size="12">P</tspan>
      </text>
      <text class="label" transform="translate(733.2,813.8)">
        <tspan x="0" dy="15" font-size="12">P</tspan>
      </text>
      <text class="label" transform="translate(592.1,394.7)">
        <tspan x="0" dy="15" font-size="12">P</tspan>
      </text>
      <text class="label" transform="translate(733.2,391.8)">
        <tspan x="0" dy="15" font-size="12">P</tspan>
      </text>
      <text class="label" transform="translate(662.7,457.8)">
        <tspan x="0" dy="15" font-size="12">G6P</tspan>
        <tspan x="0" dy="15" font-size="12">transporter</tspan>
      </text>
      <text class="label" transform="translate(767.5,513.1)">
        <tspan x="0" dy="15" font-size="12">glucose</tspan>
        <tspan x="0" dy="15" font-size="12">6-phosphate</tspan>
      </text>
      <text class="label" transform="translate(793.6,596.4)">
        <tspan x="0" dy="15" font-size="12">phospho-</tspan>
        <tspan x="0" dy="15" font-size="12">glucomutase</tspan>
        <tspan x="0" dy="15" font-size="12">(cPGM)</tspan>
      </text>
      <text class="label" transform="translate(813.4,696.6)">
        <tspan x="0" dy="15" font-size="12">glucose</tspan>
        <tspan x="0" dy="15" font-size="12">1-phosphate</tspan>
      </text>
      <text class="label" transform="translate(965.6,688.1)">
        <tspan x="0" dy="15" font-size="12">ADPglucose</tspan>
        <tspan x="0" dy="15" font-size="12">pyrophosphorylase</tspan>
        <tspan x="0" dy="15" font-size="12">(pAGPase)</tspan>
      </text>
      <text class="label" transform="translate(1014.0,574.3)">
        <tspan x="0" dy="15" font-size="12">ADP-</tspan>
        <tspan x="0" dy="15" font-size="12">glucose</tspan>
      </text>
      <text class="label" transform="translate(1001.0,821.8)">
        <tspan x="0" dy="15" font-size="12">PP</tspan>
      </text>
      <text class="label" transform="translate(1091.5,710.1)">
        <tspan x="0" dy="15" font-size="12">ATP</tspan>
      </text>
      <text class="label" transform="translate(1049.8,921.6)">
        <tspan x="0" dy="15" font-size="12">inorganic</tspan>
        <tspan x="0" dy="15" font-size="12">diphosphatase</tspan>
      </text>
      <text class="label" transform="translate(1116.5,1017.6)">
        <tspan x="0" dy="15" font-size="12">P</tspan>
      </text>
      <text class="label" transform="translate(1198.0,1080.8)">
        <tspan x="0" dy="15" font-size="12">phosphate</tspan>
        <tspan x="0" dy="15" font-size="12">transporter</tspan>
      </text>
      <text class="label" transform="translate(1295.6,1122.5)">
        <tspan x="0" dy="15" font-size="12">P</tspan>
      </text>
      <text class="label" transform="translate(1067.6,451.0)">
        <tspan x="0" dy="15" font-size="12">starch</tspan>
        <tspan x="0" dy="15" font-size="12">synthase</tspan>
        <tspan x="0" dy="15" font-size="12">(simpl.)</tspan>
      </text>
      <text class="label" transform="translate(1145.9,405.3)">
        <tspan x="0" dy="15" font-size="12">ADP</tspan>
      </text>
      <text class="label" transform="translate(1067.6,367.7)">
        <tspan x="0" dy="15" font-size="12">starch</tspan>
      </text>
      <text class="label" transform="translate(1225.1,683.3)">
        <tspan x="0" dy="15" font-size="12">ATP/ADP</tspan>
        <tspan x="0" dy="15" font-size="12">transporter</tspan>
      </text>
      <text class="label" transform="translate(1145.9,645.6)">
        <tspan x="0" dy="15" font-size="12">ADP</tspan>
      </text>
      <text class="label" transform="translate(1304.4,738.4)">
        <tspan x="0" dy="15" font-size="12">ADP</tspan>
      </text>
      <text class="label" transform="translate(1304.3,638.5)">
        <tspan x="0" dy="15" font-size="12">ATP</tspan>
      </text>
    </g>
    <g>
      <line class="link" x1="39.9" y1="398.3" x2="-6.5" y2="353.9"></line>
      <line class="link" x1="53.0" y1="386.3" x2="55.9" y2="393.6"></line>
      <line class="link" x1="96.5" y1="452.8" x2="128.0" y2="483.4"></line>
      <line class="link" x1="155.0" y1="511.4" x2="211.2" y2="575.6"></line>
      <line class="link" x1="213.2" y1="603.9" x2="171.2" y2="646.6"></line>
      <line class="link" x1="199.4" y1="749.9" x2="284.0" y2="680.1"></line>
      <line class="link" x1="339.9" y1="637.4" x2="394.2" y2="599.4"></line>
      <line class="link" x1="457.0" y1="557.0" x2="487.5" y2="537.2"></line>
      <line class="link" x1="235.2" y1="579.4" x2="303.8" y2="495.5"></line>
      <line class="link" x1="345.1" y1="468.4" x2="390.5" y2="450.7"></line>
      <line class="link" x1="441.5" y1="448.8" x2="494.1" y2="491.8"></line>
      <line class="link" x1="139.5" y1="511.4" x2="121.0" y2="558.7"></line>
      <line class="link" x1="122.5" y1="602.9" x2="146.4" y2="645.8"></line>
      <line class="link" x1="143.9" y1="569.9" x2="165.8" y2="561.0"></line>
      <line class="link" x1="170.4" y1="538.6" x2="74.7" y2="507.8"></line>
      <line class="link" x1="35.7" y1="467.1" x2="42.9" y2="391.3"></line>
      <line class="link" x1="29.4" y1="521.6" x2="23.2" y2="567.7"></line>
      <line class="link" x1="39.0" y1="584.6" x2="74.1" y2="583.9"></line>
      <line class="link" x1="-40.0" y1="496.7" x2="-8.8" y2="495.7"></line>
      <line class="link" x1="122.7" y1="815.9" x2="166.7" y2="777.7"></line>
      <line class="link" x1="197.0" y1="749.9" x2="205.5" y2="741.4"></line>
      <line class="link" x1="465.9" y1="368.2" x2="436.0" y2="420.0"></line>
      <line class="link" x1="422.1" y1="424.3" x2="398.7" y2="359.7"></line>
      <line class="link" x1="442.9" y1="794.5" x2="407.5" y2="747.4"></line>
      <line class="link" x1="383.6" y1="743.4" x2="382.5" y2="815.0"></line>
      <line class="link" x1="354.0" y1="688.9" x2="224.0" y2="570.7"></line>
      <line class="link" x1="493.7" y1="712.3" x2="451.5" y2="713.8"></line>
      <line class="link" x1="526.9" y1="534.5" x2="537.9" y2="580.3"></line>
      <line class="link" x1="543.3" y1="639.7" x2="539.2" y2="686.1"></line>
      <line class="link" x1="724.1" y1="817.1" x2="686.4" y2="780.3"></line>
      <line class="link" x1="644.8" y1="776.8" x2="604.6" y2="821.4"></line>
      <line class="link" x1="601.2" y1="416.1" x2="639.4" y2="454.3"></line>
      <line class="link" x1="580.5" y1="726.8" x2="618.5" y2="740.8"></line>
      <line class="link" x1="700.1" y1="497.3" x2="725.6" y2="510.7"></line>
      <line class="link" x1="785.8" y1="596.4" x2="774.5" y2="557.4"></line>
      <line class="link" x1="769.9" y1="728.1" x2="706.9" y2="745.1"></line>
      <line class="link" x1="809.1" y1="696.6" x2="800.4" y2="655.8"></line>
      <line class="link" x1="856.8" y1="716.0" x2="898.1" y2="715.8"></line>
      <line class="link" x1="976.5" y1="688.1" x2="1004.3" y2="618.5"></line>
      <line class="link" x1="1074.6" y1="721.5" x2="1033.1" y2="719.1"></line>
      <line class="link" x1="973.7" y1="742.6" x2="996.0" y2="817.0"></line>
      <line class="link" x1="1006.6" y1="846.3" x2="1038.7" y2="917.1"></line>
      <line class="link" x1="1064.7" y1="961.1" x2="1104.4" y2="1013.8"></line>
      <line class="link" x1="1125.6" y1="1037.8" x2="1171.5" y2="1077.5"></line>
      <line class="link" x1="1237.5" y1="1114.4" x2="1281.8" y2="1130.0"></line>
      <line class="link" x1="1023.1" y1="574.3" x2="1052.9" y2="510.0"></line>
      <line class="link" x1="1100.0" y1="453.1" x2="1126.1" y2="432.9"></line>
      <line class="link" x1="1190.5" y1="683.3" x2="1168.0" y2="670.5"></line>
      <line class="link" x1="1286.5" y1="740.0" x2="1262.3" y2="725.4"></line>
      <line class="link" x1="1255.0" y1="683.3" x2="1283.2" y2="664.7"></line>
      <line class="link" x1="1108.4" y1="720.0" x2="1180.7" y2="709.5"></line>
      <line class="link" x1="681.6" y1="457.8" x2="720.6" y2="417.2"></line>
      <line class="link" x1="159.2" y1="674.7" x2="179.6" y2="745.1"></line>
      <line class="link" x1="1067.6" y1="451.0" x2="1067.6" y2="397.2"></line>
      <line class="link" x1="565.6" y1="503.2" x2="618.4" y2="489.3"></line>
    </g>
  </g>
</svg>